<?xml version="1.0" encoding="utf-8"?>
<!-- Generator: Adobe Illustrator 16.2.0, SVG Export Plug-In . SVG Version: 6.00 Build 0)  -->
<!DOCTYPE svg PUBLIC "-//W3C//DTD SVG 1.1//EN" "http://www.w3.org/Graphics/SVG/1.1/DTD/svg11.dtd">
<svg version="1.1" id="Layer_1" xmlns="http://www.w3.org/2000/svg" xmlns:xlink="http://www.w3.org/1999/xlink" x="0px" y="0px"
	 width="306px" height="140px" viewBox="0 0 306 140" enable-background="new 0 0 306 140" xml:space="preserve">
<g>
	<g>
		<path fill="#1C3664" stroke="#1C3664" stroke-width="3" stroke-miterlimit="10" d="M63.696,67.475
			c0.126-3.806-0.085-7.955-0.632-12.446c-0.548-4.49-1.299-8.091-2.254-10.802c-0.625-1.773-1.356-2.513-2.192-2.219
			c-0.771,0.271-1.816,1.788-3.138,4.548c-1.89,4.353-3.271,9.081-4.144,14.185c-0.873,5.104-1.161,10.106-0.864,15.004
			c0.296,4.899,1.193,9.474,2.69,13.724c1.179,3.347,2.346,5.513,3.502,6.497c1.156,0.985,2.738,1.124,4.746,0.416
			c1.74-0.613,3.728-1.858,5.963-3.737c5.009-4.36,10.005-9.826,14.989-16.397c2.229-2.854,3.729-4.417,4.499-4.689
			c1.104-0.389,1.851-0.031,2.24,1.073l0.035,0.1c0.363,1.565,0.446,3.455,0.248,5.668c-0.443,4.295-1.101,7.235-1.971,8.82
			c-1.47,2.662-3.746,5.572-6.829,8.726c-3.083,3.156-6.376,6.008-9.879,8.559c-3.502,2.551-6.576,4.292-9.22,5.223
			c-3.045,1.073-6.127,1.51-9.244,1.31c-3.118-0.2-6.034-0.95-8.75-2.25c-2.715-1.301-5.114-3.088-7.194-5.365
			c-2.081-2.276-3.658-4.937-4.731-7.983c-0.813-2.309-1.327-4.94-1.54-7.894c-0.213-2.953-0.135-6.15,0.232-9.59
			c0.369-3.439,0.985-6.76,1.851-9.963c0.495-1.904,1.055-3.757,1.681-5.558c0.626-1.8,1.381-3.609,2.265-5.425
			s1.911-3.626,3.081-5.431c1.17-1.804,2.271-3.376,3.303-4.719c1.788-2.398,3.731-4.625,5.829-6.681
			c2.097-2.055,4.116-3.745,6.058-5.069c1.941-1.323,3.798-2.297,5.573-2.922c4.384-1.544,8.215-1.615,11.493-0.212
			c3.278,1.404,5.625,4.113,7.04,8.128c1.486,4.217,2.001,8.992,1.548,14.324c-0.454,5.333-1.797,10.33-4.029,14.991
			c-1.516,3.281-3.197,6.036-5.044,8.267c-1.848,2.231-3.708,3.677-5.582,4.337c-1.64,0.578-2.737,0.081-3.291-1.493
			c-0.259-0.736-0.167-1.917,0.276-3.54C62.944,74.737,63.406,71.564,63.696,67.475z"/>
		<path fill="#1C3664" stroke="#1C3664" stroke-width="3" stroke-miterlimit="10" d="M115.663,80.443
			c0.672,2.057,2.187,2.926,4.542,2.607c2.637-0.357,5.856-2.368,9.656-6.034c2.218-2.126,3.75-3.247,4.594-3.361
			c1.055-0.143,2.077,0.006,3.067,0.444c0.99,0.439,1.526,0.957,1.607,1.555c0.086,0.633-0.313,1.528-1.194,2.686
			c-1.612,2.116-3.51,4.226-5.695,6.33c-2.186,2.104-4.325,3.898-6.415,5.38c-2.091,1.483-4.216,2.719-6.373,3.709
			c-2.158,0.991-4.116,1.604-5.873,1.843c-4.396,0.595-8.082-0.186-11.059-2.343c-2.977-2.156-4.749-5.327-5.316-9.512
			c-0.433-3.199-0.228-6.906,0.616-11.121c0.844-4.213,2.206-8.238,4.085-12.073c2.221-4.49,5.167-8.38,8.84-11.67
			c4.545-3.98,9.104-6.281,13.675-6.899c3.304-0.447,6.04,0.248,8.204,2.085c2.164,1.838,3.494,4.585,3.989,8.241
			c0.386,2.848,0.041,5.921-1.035,9.217c-1.076,3.297-2.88,6.566-5.413,9.809c-2.068,2.715-4.163,4.896-6.284,6.544
			c-2.123,1.648-4.045,2.588-5.768,2.822C117.341,80.806,116.523,80.721,115.663,80.443z M115.329,78.769
			c1.47-1.308,2.553-2.565,3.25-3.77c1.554-2.538,2.641-5.353,3.261-8.444c0.547-2.043,0.887-4.291,1.021-6.744
			c0.133-2.453,0.06-4.716-0.221-6.791c-0.262-1.934-0.797-2.846-1.606-2.737c-1.125,0.152-2.512,2.864-4.162,8.136
			c-0.966,3.175-1.68,6.306-2.139,9.393c-0.46,3.088-0.543,5.705-0.253,7.849C114.579,76.4,114.861,77.436,115.329,78.769z"/>
		<path fill="#1C3664" stroke="#1C3664" stroke-width="3" stroke-miterlimit="10" d="M161.595,76.889
			c0.417,2.124,1.814,3.17,4.192,3.14c2.661-0.034,6.1-1.639,10.318-4.816c2.46-1.841,4.116-2.767,4.968-2.778
			c1.064-0.014,2.061,0.258,2.991,0.813c0.929,0.556,1.398,1.136,1.406,1.739c0.008,0.638-0.496,1.479-1.511,2.521
			c-1.857,1.905-3.997,3.769-6.422,5.591c-2.425,1.823-4.766,3.343-7.021,4.561c-2.255,1.218-4.515,2.187-6.776,2.908
			c-2.262,0.721-4.28,1.092-6.054,1.115c-4.435,0.057-7.999-1.166-10.692-3.669c-2.693-2.502-4.067-5.864-4.121-10.087
			c-0.041-3.228,0.612-6.882,1.962-10.963c1.35-4.08,3.19-7.909,5.522-11.488c2.75-4.187,6.147-7.69,10.192-10.509
			c4.995-3.399,9.799-5.128,14.412-5.188c3.334-0.042,5.965,0.98,7.89,3.066c1.924,2.087,2.911,4.976,2.958,8.665
			c0.037,2.874-0.68,5.882-2.147,9.022c-1.469,3.142-3.656,6.168-6.564,9.08c-2.382,2.444-4.726,4.354-7.032,5.731
			c-2.307,1.378-4.33,2.078-6.068,2.1C163.216,77.454,162.416,77.27,161.595,76.889z M161.467,75.188
			c1.617-1.12,2.846-2.236,3.683-3.347c1.851-2.33,3.271-4.992,4.263-7.985c0.791-1.961,1.401-4.151,1.832-6.57
			c0.43-2.418,0.632-4.674,0.605-6.768c-0.025-1.951-0.445-2.922-1.261-2.912c-1.136,0.015-2.842,2.538-5.12,7.57
			c-1.345,3.034-2.434,6.055-3.264,9.064c-0.832,3.009-1.232,5.596-1.205,7.76C161.01,72.745,161.165,73.808,161.467,75.188z"/>
		<path fill="#1C3664" stroke="#1C3664" stroke-width="3" stroke-miterlimit="10" d="M190.698,92.358
			c-3.197-0.199-4.728-1.375-4.594-3.529c0.042-0.671,0.283-1.684,0.724-3.039c0.441-1.355,0.883-2.444,1.327-3.268
			c1.217-2.369,2.292-3.896,3.227-4.583c1.087-0.854,2.674-1.57,4.761-2.15c2.086-0.578,3.911-0.819,5.474-0.722
			c2.202,0.137,3.224,1.477,3.066,4.019c-0.15,2.401-1.025,5.289-2.625,8.663c-0.417,0.967-0.88,1.674-1.39,2.121
			c-0.509,0.446-1.328,0.847-2.455,1.202C195.121,92.049,192.616,92.478,190.698,92.358z"/>
		<path fill="#1C3664" stroke="#1C3664" stroke-width="3" stroke-miterlimit="10" d="M227.27,47.664
			c2.199-1.623,4.178-2.326,5.936-2.109c1.933,0.239,3.416,1.092,4.448,2.56s1.417,3.257,1.157,5.368
			c-0.374,3.027-1.067,6.142-2.079,9.343c-1.012,3.202-2.553,7.097-4.621,11.686c-2.068,4.589-5.296,11.333-9.683,20.229
			c-1.492,3.104-3.15,5.965-4.975,8.582c-1.825,2.617-3.602,4.712-5.333,6.286c-0.528,0.506-1.161,0.715-1.9,0.623
			c-1.515-0.187-2.655-1.668-3.419-4.444c-0.765-2.776-0.921-5.995-0.469-9.657c0.496-4.014,1.311-7.506,2.447-10.477
			c1.135-2.97,2.143-4.401,3.024-4.292c0.352,0.043,0.748,0.307,1.189,0.791c0.131,0.088,0.23,0.154,0.297,0.197
			c0.065,0.044,0.147,0.108,0.245,0.191c0.148-0.625,0.305-1.321,0.472-2.087c0.166-0.766,0.318-1.426,0.459-1.981
			c1.464-6.933,2.835-12.314,4.113-16.143s2.718-7.038,4.323-9.628C223.925,51.041,225.382,49.361,227.27,47.664z M231.788,42.859
			c-1.436-0.249-2.521-0.937-3.257-2.064c-0.737-1.128-0.999-2.554-0.785-4.28c0.265-2.147,1.007-4.397,2.228-6.75
			c1.22-2.351,2.542-4.083,3.967-5.194c1.306-1.019,2.821-1.421,4.546-1.208c1.831,0.226,3.07,0.827,3.719,1.8
			c0.648,0.974,0.846,2.482,0.594,4.524c-0.474,3.838-1.794,7.072-3.96,9.7c-2.167,2.628-4.464,3.792-6.894,3.492L231.788,42.859z"
			/>
		<path fill="#1C3664" stroke="#1C3664" stroke-width="3" stroke-miterlimit="10" d="M251.771,102.334
			c2.067,0.341,4.147-0.251,6.24-1.774c2.093-1.524,3.381-3.395,3.864-5.614c0.332-1.525,0.092-2.848-0.717-3.969
			c-0.841-1.308-3.02-2.89-6.539-4.745c-5.166-2.793-8.366-5.36-9.6-7.699c-1.213-1.934-1.579-4.01-1.096-6.229
			c0.867-3.987,3.182-7.659,6.945-11.017c3.762-3.357,8.174-5.82,13.235-7.388c5.063-1.568,9.881-1.854,14.457-0.858
			c2.219,0.482,4.188,1.455,5.902,2.918c1.715,1.462,2.959,3.176,3.729,5.141c0.771,1.965,0.938,3.954,0.5,5.964
			c-0.43,1.977-1.498,3.887-3.207,5.729c-1.707,1.844-3.66,3.262-5.854,4.255c-2.197,0.993-4.143,1.305-5.842,0.936
			c-0.971-0.211-1.768-0.603-2.387-1.173c-0.621-0.571-0.877-1.098-0.771-1.584c0.105-0.485,0.398-1.166,0.879-2.042
			c1.412-2.815,2.359-5.333,2.842-7.552c0.475-2.185,0.266-4.39-0.629-6.619c-1.957,0.809-3.27,1.501-3.939,2.081
			c-1.65,1.237-3.049,2.747-4.199,4.528c-1.227,1.801-2.031,3.584-2.416,5.35c-0.271,1.248-0.201,2.306,0.211,3.175
			s1.211,1.706,2.396,2.51c1.188,0.804,3.031,1.804,5.529,3.002c4.168,2.034,7.043,3.75,8.627,5.148
			c0.363,0.333,0.895,0.976,1.596,1.927c1.008,1.708,1.266,3.691,0.775,5.945c-0.521,2.394-1.793,4.651-3.814,6.771
			c-2.023,2.121-4.879,4.143-8.564,6.065c-3.939,2.085-7.688,3.377-11.247,3.875c-3.559,0.497-7.33,0.313-11.316-0.555
			c-3.849-0.837-6.708-2.258-8.578-4.263c-1.87-2.005-2.518-4.325-1.945-6.959c0.407-1.873,1.548-3.612,3.423-5.22
			c1.875-1.607,4.027-2.782,6.458-3.524c2.43-0.742,4.686-0.887,6.766-0.434c1.561,0.339,2.266,0.856,2.115,1.549
			c-0.076,0.347-0.427,0.87-1.051,1.569c-1.879,2.133-3.042,4.222-3.486,6.268C250.747,99.279,250.982,100.782,251.771,102.334z"/>
	</g>
	<g>
		<g>
			<path fill="#F8991D" stroke="#2E67B2" stroke-width="3" stroke-miterlimit="10" d="M58.696,62.475
				c0.126-3.806-0.085-7.955-0.632-12.446c-0.548-4.49-1.299-8.091-2.254-10.802c-0.625-1.773-1.356-2.513-2.192-2.219
				c-0.771,0.271-1.816,1.788-3.138,4.548c-1.89,4.353-3.271,9.081-4.144,14.185c-0.873,5.104-1.161,10.106-0.864,15.004
				c0.296,4.899,1.193,9.474,2.69,13.724c1.179,3.347,2.346,5.513,3.502,6.497c1.156,0.985,2.738,1.124,4.746,0.416
				c1.74-0.613,3.728-1.858,5.963-3.737c5.009-4.36,10.005-9.826,14.989-16.397c2.229-2.854,3.729-4.417,4.499-4.689
				c1.104-0.389,1.851-0.031,2.24,1.073l0.035,0.1c0.363,1.565,0.446,3.455,0.248,5.668c-0.443,4.295-1.101,7.235-1.971,8.82
				c-1.47,2.662-3.746,5.572-6.829,8.726c-3.083,3.156-6.376,6.008-9.879,8.559c-3.502,2.551-6.576,4.292-9.22,5.223
				c-3.045,1.073-6.127,1.51-9.244,1.31c-3.118-0.2-6.034-0.95-8.75-2.25c-2.715-1.301-5.114-3.088-7.194-5.365
				c-2.081-2.276-3.658-4.937-4.731-7.983c-0.813-2.309-1.327-4.94-1.54-7.894c-0.213-2.953-0.135-6.15,0.232-9.59
				c0.369-3.439,0.985-6.76,1.851-9.963c0.495-1.904,1.055-3.757,1.681-5.558c0.626-1.8,1.381-3.609,2.265-5.425
				s1.911-3.626,3.081-5.431c1.17-1.804,2.271-3.376,3.303-4.719c1.788-2.398,3.731-4.625,5.829-6.681
				c2.097-2.055,4.116-3.745,6.058-5.069c1.941-1.323,3.798-2.297,5.573-2.922c4.384-1.544,8.215-1.615,11.493-0.212
				c3.278,1.404,5.625,4.113,7.04,8.128c1.486,4.217,2.001,8.992,1.548,14.324c-0.454,5.333-1.797,10.33-4.029,14.991
				c-1.516,3.281-3.197,6.036-5.044,8.267c-1.848,2.231-3.708,3.677-5.582,4.337c-1.64,0.578-2.737,0.081-3.291-1.493
				c-0.259-0.736-0.167-1.917,0.276-3.54C57.944,69.737,58.406,66.564,58.696,62.475z"/>
			<path fill="#F8991D" stroke="#2E67B2" stroke-width="3" stroke-miterlimit="10" d="M110.663,75.443
				c0.672,2.057,2.187,2.926,4.542,2.607c2.637-0.357,5.856-2.368,9.656-6.034c2.218-2.126,3.75-3.247,4.594-3.361
				c1.055-0.143,2.077,0.006,3.067,0.444c0.99,0.439,1.526,0.957,1.607,1.555c0.086,0.633-0.313,1.528-1.194,2.686
				c-1.612,2.116-3.51,4.226-5.695,6.33c-2.186,2.104-4.325,3.898-6.415,5.38c-2.091,1.483-4.216,2.719-6.373,3.709
				c-2.158,0.991-4.116,1.604-5.873,1.843c-4.396,0.595-8.082-0.186-11.059-2.343c-2.977-2.156-4.749-5.327-5.316-9.512
				c-0.433-3.199-0.228-6.906,0.616-11.121c0.844-4.213,2.206-8.238,4.085-12.073c2.221-4.49,5.167-8.38,8.84-11.67
				c4.545-3.98,9.104-6.281,13.675-6.899c3.304-0.447,6.04,0.248,8.204,2.085c2.164,1.838,3.494,4.585,3.989,8.241
				c0.386,2.848,0.041,5.921-1.035,9.217c-1.076,3.297-2.88,6.566-5.413,9.809c-2.068,2.715-4.163,4.896-6.284,6.544
				c-2.123,1.648-4.045,2.588-5.768,2.822C112.341,75.806,111.523,75.721,110.663,75.443z M110.329,73.769
				c1.47-1.308,2.553-2.565,3.25-3.77c1.554-2.538,2.641-5.353,3.261-8.444c0.547-2.043,0.887-4.291,1.021-6.744
				c0.133-2.453,0.06-4.716-0.221-6.791c-0.262-1.934-0.797-2.846-1.606-2.737c-1.125,0.152-2.512,2.864-4.162,8.136
				c-0.966,3.175-1.68,6.306-2.139,9.393c-0.46,3.088-0.543,5.705-0.253,7.849C109.579,71.4,109.861,72.436,110.329,73.769z"/>
			<path fill="#F8991D" stroke="#2E67B2" stroke-width="3" stroke-miterlimit="10" d="M156.595,71.889
				c0.417,2.124,1.814,3.17,4.192,3.14c2.661-0.034,6.1-1.639,10.318-4.816c2.46-1.841,4.116-2.767,4.968-2.778
				c1.064-0.014,2.061,0.258,2.991,0.813c0.929,0.556,1.398,1.136,1.406,1.739c0.008,0.638-0.496,1.479-1.511,2.521
				c-1.857,1.905-3.997,3.769-6.422,5.591c-2.425,1.823-4.766,3.343-7.021,4.561c-2.255,1.218-4.515,2.187-6.776,2.908
				c-2.262,0.721-4.28,1.092-6.054,1.115c-4.435,0.057-7.999-1.166-10.692-3.669c-2.693-2.502-4.067-5.864-4.121-10.087
				c-0.041-3.228,0.612-6.882,1.962-10.963c1.35-4.08,3.19-7.909,5.522-11.488c2.75-4.187,6.147-7.69,10.192-10.509
				c4.995-3.399,9.799-5.128,14.412-5.188c3.334-0.042,5.965,0.98,7.89,3.066c1.924,2.087,2.911,4.976,2.958,8.665
				c0.037,2.874-0.68,5.882-2.147,9.022c-1.469,3.142-3.656,6.168-6.564,9.08c-2.382,2.444-4.726,4.354-7.032,5.731
				c-2.307,1.378-4.33,2.078-6.068,2.1C158.216,72.454,157.416,72.27,156.595,71.889z M156.467,70.188
				c1.617-1.12,2.846-2.236,3.683-3.347c1.851-2.33,3.271-4.992,4.263-7.985c0.791-1.961,1.401-4.151,1.832-6.57
				c0.43-2.418,0.632-4.674,0.605-6.768c-0.025-1.951-0.445-2.922-1.261-2.912c-1.136,0.015-2.842,2.538-5.12,7.57
				c-1.345,3.034-2.434,6.055-3.264,9.064c-0.832,3.009-1.232,5.596-1.205,7.76C156.01,67.745,156.165,68.808,156.467,70.188z"/>
			<path fill="#F8991D" stroke="#2E67B2" stroke-width="3" stroke-miterlimit="10" d="M185.698,87.358
				c-3.197-0.199-4.728-1.375-4.594-3.529c0.042-0.671,0.283-1.684,0.724-3.039c0.441-1.355,0.883-2.444,1.327-3.268
				c1.217-2.369,2.292-3.896,3.227-4.583c1.087-0.854,2.674-1.57,4.761-2.15c2.086-0.578,3.911-0.819,5.474-0.722
				c2.202,0.137,3.224,1.477,3.066,4.019c-0.15,2.401-1.025,5.289-2.625,8.663c-0.417,0.967-0.88,1.674-1.39,2.121
				c-0.509,0.446-1.328,0.847-2.455,1.202C190.121,87.049,187.616,87.478,185.698,87.358z"/>
			<path fill="#F8991D" stroke="#2E67B2" stroke-width="3" stroke-miterlimit="10" d="M222.27,42.664
				c2.199-1.623,4.178-2.326,5.936-2.109c1.933,0.239,3.416,1.092,4.448,2.56s1.417,3.257,1.157,5.368
				c-0.374,3.027-1.067,6.142-2.079,9.343c-1.012,3.202-2.553,7.097-4.621,11.686c-2.068,4.589-5.296,11.333-9.683,20.229
				c-1.492,3.104-3.15,5.965-4.975,8.582c-1.825,2.617-3.602,4.712-5.333,6.286c-0.528,0.506-1.161,0.715-1.9,0.623
				c-1.515-0.187-2.655-1.668-3.419-4.444c-0.765-2.776-0.921-5.995-0.469-9.657c0.496-4.014,1.311-7.506,2.447-10.477
				c1.135-2.97,2.143-4.401,3.024-4.292c0.352,0.043,0.748,0.307,1.189,0.791c0.131,0.088,0.23,0.154,0.297,0.197
				c0.065,0.044,0.147,0.108,0.245,0.191c0.148-0.625,0.305-1.321,0.472-2.087c0.166-0.766,0.318-1.426,0.459-1.981
				c1.464-6.933,2.835-12.314,4.113-16.143s2.718-7.038,4.323-9.628C218.925,46.041,220.382,44.361,222.27,42.664z M226.788,37.859
				c-1.436-0.249-2.521-0.937-3.257-2.064c-0.737-1.128-0.999-2.554-0.785-4.28c0.265-2.147,1.007-4.397,2.228-6.75
				c1.22-2.351,2.542-4.083,3.967-5.194c1.306-1.019,2.821-1.421,4.546-1.208c1.831,0.226,3.07,0.827,3.719,1.8
				c0.648,0.974,0.846,2.482,0.594,4.524c-0.474,3.838-1.794,7.072-3.96,9.7c-2.167,2.628-4.464,3.792-6.894,3.492L226.788,37.859z"
				/>
			<path fill="#F8991D" stroke="#2E67B2" stroke-width="3" stroke-miterlimit="10" d="M246.771,97.334
				c2.068,0.341,4.148-0.251,6.241-1.774c2.093-1.524,3.381-3.395,3.863-5.614c0.332-1.525,0.093-2.848-0.717-3.969
				c-0.841-1.308-3.02-2.89-6.538-4.745c-5.166-2.793-8.366-5.36-9.6-7.699c-1.213-1.934-1.579-4.01-1.096-6.229
				c0.867-3.987,3.182-7.659,6.944-11.017c3.762-3.357,8.174-5.82,13.236-7.388c5.062-1.568,9.88-1.854,14.457-0.858
				c2.219,0.482,4.188,1.455,5.902,2.918c1.715,1.462,2.959,3.176,3.729,5.141c0.771,1.965,0.938,3.954,0.5,5.964
				c-0.43,1.977-1.498,3.887-3.207,5.729c-1.707,1.844-3.66,3.262-5.854,4.255c-2.197,0.993-4.143,1.305-5.842,0.936
				c-0.971-0.211-1.768-0.603-2.387-1.173c-0.621-0.571-0.877-1.098-0.771-1.584c0.105-0.485,0.398-1.166,0.879-2.042
				c1.412-2.815,2.359-5.333,2.842-7.552c0.475-2.185,0.266-4.39-0.629-6.619c-1.957,0.809-3.27,1.501-3.939,2.081
				c-1.65,1.237-3.049,2.747-4.199,4.528c-1.227,1.801-2.032,3.584-2.417,5.35c-0.271,1.248-0.201,2.306,0.211,3.175
				s1.211,1.706,2.397,2.51c1.188,0.804,3.031,1.804,5.529,3.002c4.168,2.034,7.043,3.75,8.627,5.148
				c0.363,0.333,0.895,0.976,1.596,1.927c1.008,1.708,1.266,3.691,0.775,5.945c-0.521,2.394-1.793,4.651-3.814,6.771
				c-2.023,2.121-4.879,4.143-8.564,6.065c-3.939,2.085-7.688,3.377-11.247,3.875c-3.559,0.497-7.331,0.313-11.317-0.555
				c-3.849-0.837-6.708-2.258-8.578-4.263c-1.87-2.005-2.518-4.325-1.945-6.959c0.407-1.873,1.548-3.612,3.423-5.22
				c1.875-1.607,4.027-2.782,6.458-3.524c2.43-0.742,4.687-0.887,6.766-0.434c1.561,0.339,2.266,0.856,2.115,1.549
				c-0.076,0.347-0.427,0.87-1.051,1.569c-1.879,2.133-3.042,4.222-3.487,6.268C245.747,94.279,245.982,95.782,246.771,97.334z"/>
		</g>
	</g>
</g>
</svg>
